<svg width="19" height="19" viewBox="0 0 19 19" fill="none" xmlns="http://www.w3.org/2000/svg">
    <path
        d="M8.64865 13.8987C8.79865 13.7487 8.87065 13.5675 8.86465 13.355C8.85865 13.1425 8.7804 12.9612 8.6299 12.8112L6.51115 10.6925H14.8737C15.0862 10.6925 15.2644 10.6205 15.4084 10.4765C15.5524 10.3325 15.6242 10.1545 15.6237 9.94248C15.6237 9.72998 15.5517 9.55173 15.4077 9.40773C15.2637 9.26373 15.0857 9.19198 14.8737 9.19248H6.51115L8.64865 7.05498C8.79865 6.90498 8.87365 6.72673 8.87365 6.52023C8.87365 6.31373 8.79865 6.13573 8.64865 5.98623C8.49865 5.83623 8.3204 5.76123 8.1139 5.76123C7.9074 5.76123 7.7294 5.83623 7.5799 5.98623L4.14865 9.41748C4.07366 9.49248 4.0204 9.57373 3.9889 9.66123C3.9574 9.74873 3.9419 9.84248 3.9424 9.94248C3.9424 10.0425 3.95815 10.1362 3.98965 10.2237C4.02116 10.3112 4.07415 10.3925 4.14865 10.4675L7.59865 13.9175C7.73615 14.055 7.9079 14.1237 8.1139 14.1237C8.3199 14.1237 8.49815 14.0487 8.64865 13.8987Z"
        fill="black" />
</svg>